HIERARCHY
ROOT Hips
{
  OFFSET 0 0 0
  CHANNELS 6 Xposition Yposition Zposition Zrotation Yrotation Xrotation
  JOINT LeftThigh
  {
    OFFSET 8.409438 0 -5.917753
    CHANNELS 3 Zrotation Yrotation Xrotation
    JOINT LeftLeg
    {
      OFFSET 0 0 -42.358652
      CHANNELS 3 Zrotation Yrotation Xrotation
      JOINT LeftFoot
      {
        OFFSET 0 0 -39.357303
        CHANNELS 3 Zrotation Yrotation Xrotation
      }
    }
  }
  JOINT RightThigh
  {
    OFFSET -8.409438 0 -5.917753
    CHANNELS 3 Zrotation Yrotation Xrotation
    JOINT RightLeg
    {
      OFFSET 0 0 -42.358652
      CHANNELS 3 Zrotation Yrotation Xrotation
      JOINT RightFoot
      {
        OFFSET 0 0 -39.357303
        CHANNELS 3 Zrotation Yrotation Xrotation
      }
    }
  }
  JOINT SpineLow
  {
    OFFSET 0 0 4.719101
    CHANNELS 3 Zrotation Yrotation Xrotation
    JOINT SpineMid
    {
      OFFSET 0 0 12.899191
      CHANNELS 3 Zrotation Yrotation Xrotation
      JOINT Chest
      {
        OFFSET 0 0 12.899191
        CHANNELS 3 Zrotation Yrotation Xrotation
        JOINT LeftShoulder
        {
          OFFSET 7.550562 1.41573 9.438202
          CHANNELS 3 Zrotation Yrotation Xrotation
          JOINT LeftArm
          {
            OFFSET 9.155056 0 4.247191
            CHANNELS 3 Zrotation Yrotation Xrotation
            JOINT LeftForearm
            {
              OFFSET 0 0 25.771955
              CHANNELS 3 Zrotation Yrotation Xrotation
              JOINT LeftHand
              {
                OFFSET 0 0 25.197169
                CHANNELS 3 Zrotation Yrotation Xrotation
              }
            }
          }
        }
        JOINT RightShoulder
        {
          OFFSET -7.550562 1.41573 9.438202
          CHANNELS 3 Zrotation Yrotation Xrotation
          JOINT RightArm
          {
            OFFSET -9.155056 0 4.247191
            CHANNELS 3 Zrotation Yrotation Xrotation
            JOINT RightForearm
            {
              OFFSET 0 0 -25.771955
              CHANNELS 3 Zrotation Yrotation Xrotation
              JOINT RightHand
              {
                OFFSET 0 0 -25.197169
                CHANNELS 3 Zrotation Yrotation Xrotation
              }
            }
          }
        }
        JOINT Neck
        {
          OFFSET 0 0 15.101124
          CHANNELS 3 Zrotation Yrotation Xrotation
          JOINT Head
          {
            OFFSET 0 0 11.325843
            CHANNELS 3 Zrotation Yrotation Xrotation
            End Site
            {
              OFFSET 0 0 14.157303
            }
          }
        }
      }
    }
  }
}
MOTION
Frames: 16
Frame Time: 0.0
0.0  89.887642  0.0  3.493359  -21.184218  -96.97385  4.546408  -15.479471  -4.845303  4.251174  16.42637  35.811065  -0.782434  0.058719  -0.545713  -19.165371  14.562492  -22.343685  0.350978  7.191899  35.570752  7.477939  3.831975  -0.80842  0.77589  0.493001  1.443854  2.149634  1.300543  3.962453  2.149634  1.300543  3.962453  -17.833315  20.099692  3.230989  176.224385  52.941501  -150.084295  3.742624  -1.204428  22.897852  91.090226  11.183267  -15.054981  -14.59347  0.122302  21.579932  56.261565  13.74743  49.256719  24.261843  -24.240126  -105.644685  66.548013  11.09057  -27.548721  -5.482791  -0.711833  -2.714326  -4.115298  -0.509583  -2.0423  
0.0  89.887642  0.0  3.612866  -21.562283  -97.075047  5.507012  -15.509566  -4.725859  3.684316  16.576598  35.593115  -0.876372  0.127048  -0.566729  -18.254061  14.647159  -22.177797  0.598293  7.176524  35.730995  7.194986  3.742242  -0.808715  0.811774  0.509387  1.448847  2.248786  1.34298  3.977371  2.248786  1.34298  3.977371  -17.597898  20.116301  3.214442  175.884558  52.947924  -150.238491  3.596364  -1.301335  22.883098  91.203823  11.163098  -14.993604  -14.623166  0.200069  21.605482  56.218326  13.8591  49.275007  24.404317  -24.216897  -105.707588  66.677633  10.788045  -27.553992  -5.372332  -0.58436  -2.781831  -4.031973  -0.413863  -2.091684  
0.0  89.887642  0.0  3.64982  -21.924716  -97.184727  6.493453  -15.608601  -4.585091  3.017101  16.761892  35.363949  -0.931132  0.170927  -0.57982  -17.589578  14.681348  -22.11133  0.567172  7.142953  35.890547  7.116137  3.7372  -0.785351  0.844337  0.523555  1.448  2.338615  1.379751  3.976224  2.338615  1.379751  3.976224  -17.378341  20.106334  3.24983  175.505026  52.945984  -150.489212  3.494123  -1.425854  22.90501  91.297932  11.178658  -15.038455  -14.582996  0.263713  21.678426  56.271062  13.99766  49.337523  24.657922  -24.308999  -105.875533  66.78738  10.903718  -27.504112  -5.245975  -0.541832  -2.782351  -3.937015  -0.382533  -2.091582  
0.0  89.887642  0.0  3.64298  -22.127767  -97.086648  6.678182  -15.502672  -5.065885  2.949217  16.714842  35.608672  -0.833594  0.273323  -0.517894  -16.945461  14.734181  -22.134821  0.327106  7.12559  35.9956  7.840782  4.07401  -0.702762  0.859349  0.538588  1.416044  2.379888  1.421076  3.889745  2.379889  1.421076  3.889746  -17.132183  20.108771  3.336307  175.354832  52.967012  -150.536645  3.437046  -1.488993  22.892265  91.516215  11.169749  -15.047259  -14.647933  0.302153  21.718223  56.242803  14.138919  49.331865  24.976117  -24.43072  -106.066953  66.930096  11.054305  -27.471411  -5.143833  -0.503282  -2.758998  -3.860215  -0.354278  -2.073646  
0.0  89.887642  0.0  3.596776  -22.319325  -96.96945  7.166535  -15.64773  -5.177859  2.614977  16.906411  35.51562  -0.818733  0.294691  -0.483868  -16.807939  14.724798  -22.270613  0.299233  7.060222  36.045188  7.771367  4.032768  -0.703069  0.876204  0.546871  1.380697  2.425694  1.444017  3.793799  2.425694  1.444017  3.793799  -17.036582  20.138668  3.420845  175.561596  53.039179  -150.387067  3.461341  -1.422662  22.866301  91.720772  11.175876  -15.019659  -14.655441  0.327765  21.790283  56.216986  14.308095  49.359113  25.255457  -24.566003  -106.218745  67.011749  11.203479  -27.413518  -5.073485  -0.531042  -2.703219  -3.807523  -0.375879  -2.031975  
0.0  89.887642  0.0  3.488769  -22.455351  -96.889152  7.182062  -15.829309  -5.348866  2.378199  17.094769  35.452581  -0.56795  0.407865  -0.3498  -16.600382  14.750459  -22.246567  0.023168  7.069943  35.985124  7.702863  3.940696  -0.694094  0.879676  0.545565  1.344004  2.434325  1.441613  3.693527  2.434325  1.441613  3.693527  -16.807529  20.265064  3.611342  175.184166  53.272879  -150.333091  3.376802  -1.39332  22.626567  91.711773  11.31157  -14.995113  -14.615249  0.343443  21.920752  56.214567  14.427233  49.401004  25.512526  -24.659589  -106.316136  67.03319  11.270842  -27.162526  -4.984359  -0.527247  -2.593658  -3.74056  -0.374319  -1.949684  
0.0  89.887642  0.0  3.413426  -22.640977  -96.952182  7.10816  -16.022625  -5.284924  2.385294  17.274172  35.492154  -0.457803  0.435486  -0.288791  -16.748559  14.712487  -22.248197  0.215827  6.97129  35.969379  7.777585  3.890079  -0.655608  0.912792  0.546145  1.336504  2.524698  1.441627  3.673754  2.524698  1.441627  3.673754  -16.895115  20.356385  3.683652  175.234901  53.423801  -150.317094  3.43734  -1.337803  22.514033  91.774828  11.321889  -14.860583  -14.72699  0.311528  21.985781  56.181473  14.523312  49.428212  25.645937  -24.746291  -106.320598  66.981545  11.182773  -26.846748  -5.01058  -0.576216  -2.510521  -3.760346  -0.41162  -1.88775  
0.0  89.887642  0.0  3.296177  -22.715905  -96.982913  6.71002  -16.168364  -5.287142  2.18121  17.464216  35.370698  -0.115397  0.562242  -0.130783  -17.109897  14.601021  -22.318806  0.41937  6.865488  35.979888  7.919455  3.867162  -0.610551  0.925326  0.542332  1.33262  2.558652  1.430663  3.663251  2.558652  1.430663  3.66325  -16.924431  20.479646  3.715136  175.02333  53.628606  -150.49873  3.465536  -1.319366  22.455073  91.82357  11.353417  -14.695588  -14.766657  0.263083  22.041013  56.168909  14.537357  49.407561  25.790159  -24.842653  -106.281615  66.881608  11.071363  -26.491539  -5.017659  -0.608509  -2.440823  -3.76571  -0.436385  -1.835743  
0.0  89.887642  0.0  3.232022  -22.784813  -97.001544  6.298981  -16.276306  -5.263424  2.254512  17.626648  35.425532  0.053297  0.595751  -0.048171  -17.473765  14.481705  -22.434249  0.832269  6.740978  36.036384  7.940888  3.830954  -0.570334  0.939115  0.543928  1.329747  2.596366  1.43437  3.655753  2.596366  1.43437  3.655753  -16.975219  20.550266  3.729226  174.797955  53.781772  -150.667836  3.475148  -1.305649  22.439972  91.87613  11.383723  -14.526654  -14.873323  0.186323  22.06238  56.208485  14.51989  49.39542  25.801466  -24.936716  -106.21081  66.693928  10.789915  -26.306332  -5.062196  -0.637426  -2.414203  -3.799196  -0.458118  -1.816061  
0.0  89.887642  0.0  3.176176  -22.850205  -96.960969  6.083341  -16.379245  -5.193798  2.189067  17.861281  35.359097  0.196643  0.589277  0.020448  -18.022731  14.272588  -22.648986  1.277708  6.631304  36.116317  8.014983  3.855936  -0.546327  0.942008  0.541102  1.313578  2.603772  1.427132  3.611503  2.603772  1.427132  3.611503  -16.901473  20.610297  3.772789  174.645832  53.83346  -150.769528  3.487463  -1.29512  22.47506  91.940911  11.367615  -14.403223  -14.926507  0.166195  22.121798  56.444581  14.439173  49.447172  25.706352  -25.064262  -106.267826  66.599802  10.486093  -26.151812  -5.029298  -0.61556  -2.361299  -3.774383  -0.442281  -1.776166  
0.0  89.887642  0.0  3.130418  -22.915225  -96.904546  5.779037  -16.425082  -5.266345  2.196308  17.981956  35.386607  0.375644  0.619503  0.126187  -18.33175  14.125322  -22.797985  1.581637  6.59301  36.157348  8.066785  3.849699  -0.510618  0.936946  0.534275  1.29657  2.589206  1.409429  3.564632  2.589206  1.409429  3.564632  -16.782739  20.630584  3.788449  174.669624  53.783082  -150.735138  3.519072  -1.287598  22.53527  91.951797  11.319731  -14.318881  -14.932749  0.168724  22.174779  56.4672  14.390552  49.377998  25.63559  -25.028042  -106.180652  66.666052  10.245407  -26.05998  -5.002404  -0.556135  -2.351371  -3.753979  -0.397893  -1.768207  
0.0  89.887642  0.0  3.092122  -22.912396  -96.831229  5.611125  -16.444749  -5.33253  2.250247  18.062952  35.481481  0.453274  0.600663  0.194602  -18.803097  13.927742  -22.957383  2.107715  6.534925  36.211803  8.037771  3.819131  -0.512191  0.907701  0.523304  1.278379  2.508311  1.381733  3.513868  2.508311  1.381733  3.513868  -16.589345  20.657046  3.776015  174.634589  53.702563  -150.64891  3.458638  -1.267778  22.504726  92.029963  10.867442  -13.996415  -14.874911  0.194462  22.210293  56.502339  14.392856  49.347663  25.572364  -24.999623  -106.222935  66.92391  9.998329  -26.016836  -4.873783  -0.452122  -2.332114  -3.657106  -0.320523  -1.752814  
0.0  89.887642  0.0  3.049904  -22.92205  -96.762483  5.574653  -16.443512  -5.418208  2.029973  18.126552  35.421664  0.576383  0.607095  0.301518  -18.917445  13.840203  -23.003773  2.17524  6.550982  36.201657  8.082733  3.804901  -0.494436  0.887534  0.514155  1.269254  2.452517  1.358156  3.488165  2.452517  1.358156  3.488165  -16.464732  20.638738  3.708987  174.644061  53.576475  -150.585456  3.462774  -1.259544  22.46912  92.139896  10.81477  -13.864184  -14.836192  0.208719  22.214891  56.488532  14.400419  49.26398  25.524377  -24.900555  -106.201193  67.217658  9.889162  -26.039239  -4.794688  -0.367014  -2.365738  -3.597488  -0.256723  -1.777307  
0.0  89.887642  0.0  2.968148  -22.791196  -96.649379  5.630145  -16.487568  -5.501876  1.763765  18.200066  35.365586  0.636796  0.589256  0.391715  -19.071975  13.721016  -23.007197  2.486781  6.513697  36.203846  7.915756  3.722084  -0.528126  0.848982  0.497463  1.257555  2.346036  1.315012  3.4548  2.346036  1.315012  3.4548  -16.409052  20.624219  3.672252  174.270182  53.530528  -150.626535  3.450325  -1.261539  22.415965  92.087019  10.964539  -13.79104  -14.805949  0.227238  22.213157  56.373509  14.464728  49.139585  25.517069  -24.851693  -106.292698  67.559232  9.746254  -26.04416  -4.677813  -0.266677  -2.38957  -3.509459  -0.181733  -1.79434  
0.0  89.887642  0.0  2.916408  -22.614472  -96.612994  5.660138  -16.501949  -5.553397  1.392452  18.2428  35.236804  0.731104  0.602907  0.521595  -19.112555  13.751793  -22.934154  2.354429  6.497941  36.133836  7.950494  3.687476  -0.51566  0.798322  0.483696  1.253933  2.20679  1.280175  3.443437  2.20679  1.280175  3.443437  -16.331203  20.665605  3.671412  174.135635  53.47491  -150.619066  3.488001  -1.25124  22.349287  92.180154  10.979376  -13.668865  -14.736324  0.274742  22.207591  56.340479  14.536206  49.030902  25.54936  -24.813363  -106.321144  67.779239  9.686833  -26.035594  -4.574852  -0.195924  -2.419749  -3.431975  -0.12884  -1.816397  
0.0  89.887642  0.0  2.827046  -22.337616  -96.607404  5.629168  -16.580706  -5.543884  1.134769  18.269681  35.169905  0.814647  0.612647  0.644788  -19.078524  13.766663  -22.724953  2.189066  6.503307  36.035656  7.897823  3.631013  -0.522074  0.733665  0.461996  1.255562  2.028975  1.224212  3.44597  2.028974  1.224212  3.44597  -16.199288  20.772393  3.711392  173.873768  53.467639  -150.677028  3.608332  -1.271184  22.406826  92.196589  11.108227  -13.595476  -14.61983  0.351075  22.221439  56.123302  14.666239  48.786568  25.677392  -24.974589  -106.596221  68.084082  9.258388  -25.976881  -4.46532  -0.111845  -2.421038  -3.349494  -0.066199  -1.81671  
